<svg version="1.1" id="Layer_1" xmlns="http://www.w3.org/2000/svg" xmlns:xlink="http://www.w3.org/1999/xlink" x="0px" y="0px"
	 width="100%" viewBox="0 0 362 219" enable-background="new 0 0 362 219" xml:space="preserve">
<path fill="#000000" opacity="1.000000" stroke="none" 
	d="
M272.000000,220.000000 
	C181.333359,220.000000 91.166718,220.000000 1.000060,220.000000 
	C1.000040,147.000046 1.000040,74.000099 1.000020,1.000109 
	C121.666588,1.000073 242.333176,1.000073 362.999817,1.000036 
	C362.999878,73.999893 362.999878,146.999786 362.999939,219.999847 
	C332.833344,220.000000 302.666656,220.000000 272.000000,220.000000 
M39.505341,33.000000 
	C34.032135,33.742657 28.085182,31.411068 23.038052,35.106117 
	C24.403513,35.855110 25.755604,36.216965 26.968340,35.948746 
	C31.647020,34.913963 33.442650,37.879932 34.755711,41.408791 
	C38.884548,52.505093 42.862965,63.657600 47.025517,74.741066 
	C54.841759,95.553055 62.899345,116.276474 70.465858,137.178162 
	C71.753426,140.734924 73.665672,141.832031 76.466019,140.823593 
	C78.280800,140.170059 79.741753,137.981979 80.869759,136.174713 
	C81.576668,135.042130 81.127014,133.251694 81.614128,131.907883 
	C86.023598,119.743317 90.534851,107.615700 94.996925,95.470139 
	C98.308250,86.456863 101.595261,77.434639 104.884499,68.413261 
	C106.745552,63.308933 108.673134,58.226654 110.413498,53.081257 
	C111.742004,49.153538 112.806503,45.137062 114.020706,41.169945 
	C114.844734,38.477608 116.043625,36.740295 119.523048,36.898869 
	C126.833176,37.232021 134.169052,37.000031 142.161087,37.000031 
	C155.115402,71.646461 168.094559,106.359337 180.998840,140.871994 
	C183.953384,140.871994 186.262589,140.871994 188.241531,140.871994 
	C200.604675,106.080910 212.890518,71.507385 225.026077,37.356712 
	C235.453827,37.356712 245.194046,37.356712 255.000000,37.356712 
	C255.000000,54.540970 255.000000,71.368622 255.000000,88.196266 
	C255.000000,104.770531 255.000000,121.344795 255.000000,137.837860 
	C252.342545,137.837860 250.387466,137.837860 247.867889,137.837860 
	C247.867889,113.149178 247.867889,88.615875 247.867889,63.765888 
	C238.226135,64.831039 228.925934,62.616856 219.984940,65.083931 
	C219.978058,65.644440 219.971176,66.204948 219.964294,66.765457 
	C223.196716,67.337776 226.429138,67.910088 229.783325,68.503967 
	C229.783325,91.494057 229.783325,114.575531 229.783325,137.646927 
	C225.770752,137.992538 221.974091,138.319550 218.177414,138.646576 
	C218.200241,139.234467 218.223083,139.822342 218.245926,140.410233 
	C220.104385,140.606827 221.962570,140.971619 223.821335,140.974533 
	C248.150848,141.012848 272.487793,141.358917 296.807129,140.860275 
	C310.558289,140.578323 321.942657,133.862045 329.839172,122.911537 
	C339.816467,109.075508 343.220245,93.254555 340.009338,76.254555 
	C337.925964,65.224297 334.258179,55.223072 325.789276,47.057625 
	C315.694672,37.324707 303.814606,33.099979 290.207977,33.035244 
	C264.545868,32.913155 238.882736,32.999981 213.220047,33.000065 
	C212.220200,33.000065 211.185211,32.841377 210.231476,33.051334 
	C209.446335,33.224178 208.757553,33.834698 208.026062,34.251244 
	C208.758453,34.833626 209.469604,35.885021 210.226822,35.919315 
	C214.033081,36.091698 217.851395,35.998394 222.616531,35.998394 
	C212.548691,63.845612 202.690506,91.112885 192.832336,118.380157 
	C192.339203,118.260918 191.846069,118.141678 191.352936,118.022446 
	C181.543167,91.162292 171.733414,64.302139 161.853104,37.248814 
	C166.836426,36.570930 172.109970,37.858604 175.842346,33.877758 
	C175.013611,33.110138 174.367310,33.008263 173.720993,33.008034 
	C149.724701,32.999519 125.728416,33.000355 101.732124,33.000240 
	C101.065582,33.000240 100.285782,32.786240 99.760651,33.059681 
	C99.076454,33.415951 98.594269,34.160168 98.025154,34.737446 
	C98.587166,35.156387 99.131142,35.905140 99.714325,35.937035 
	C102.206573,36.073357 104.710602,35.977489 107.209930,36.004322 
	C112.309044,36.059059 112.729721,36.626369 111.130135,41.461269 
	C108.013847,50.880482 105.089188,60.371056 101.678299,69.683044 
	C95.955467,85.306839 89.932625,100.821098 83.954147,116.349922 
	C83.647926,117.145325 82.572876,117.644745 81.999252,118.154480 
	C72.017349,90.718544 62.272839,63.935116 52.658466,37.509365 
	C57.493416,36.809479 62.211994,36.126438 66.930573,35.443401 
	C66.899338,34.628933 66.868103,33.814468 66.836868,33.000000 
	C58.058941,33.000000 49.281013,33.000000 39.505341,33.000000 
M120.000000,127.478302 
	C120.000000,130.920425 120.000000,134.362534 120.000000,137.744202 
	C109.601547,138.397644 109.601547,138.397644 109.488327,140.999344 
	C121.808945,140.999344 134.119858,141.027130 146.429947,140.939148 
	C147.284454,140.933029 148.132843,140.066177 148.984070,139.599609 
	C148.031174,139.066467 147.109833,138.156281 146.119263,138.073410 
	C143.523529,137.856277 140.897568,138.000168 137.906921,138.000168 
	C137.906921,113.110748 137.906921,88.702141 137.906921,64.190186 
	C128.729630,64.190186 119.954933,64.190186 110.746986,64.190186 
	C112.005142,69.955292 117.009125,66.929893 120.000000,68.489449 
	C120.000000,87.859055 120.000000,107.170952 120.000000,127.478302 
M120.000000,166.602722 
	C120.000000,174.375626 120.000000,182.148529 120.000000,190.089752 
	C122.365608,189.960770 124.109131,189.865707 126.231857,189.749969 
	C126.231857,179.948868 126.231857,170.534134 126.231857,160.754074 
	C130.061783,160.754074 133.484146,160.754074 136.676483,160.754074 
	C136.676483,158.295593 136.676483,156.226181 136.676483,154.000000 
	C128.868683,154.000000 121.378288,153.846832 113.900314,154.084518 
	C111.343773,154.165771 108.818382,155.227509 107.346092,155.583328 
	C101.724457,155.007187 96.816978,154.087967 91.915527,154.119019 
	C87.015884,154.150055 82.340775,158.956451 82.000557,163.305588 
	C81.559464,168.944229 84.388741,172.428467 90.434952,174.021896 
	C93.521805,174.835419 96.628754,175.739105 99.515320,177.062805 
	C100.640717,177.578888 101.939842,179.479828 101.774162,180.531754 
	C101.620743,181.505829 99.577034,182.932739 98.435913,182.870651 
	C93.523094,182.603271 88.636108,181.861282 83.145622,181.223068 
	C81.060524,184.674759 82.076675,187.843109 87.056137,188.912155 
	C90.374336,189.624527 93.839561,189.955322 97.235596,189.933319 
	C102.821426,189.897171 108.350876,185.218292 108.994423,180.432816 
	C109.598976,175.937317 106.302299,171.954758 100.282181,170.005722 
	C98.004433,169.268280 95.546547,168.942154 93.428261,167.903442 
	C91.753838,167.082382 90.473198,165.458252 89.017685,164.190750 
	C90.807358,163.127182 92.539619,161.306412 94.399254,161.165405 
	C97.760117,160.910538 101.635551,162.819595 104.506432,161.734940 
	C109.694832,159.774689 114.570320,162.033646 120.000000,160.732422 
	C120.000000,162.734085 120.000000,164.180862 120.000000,166.602722 
M177.730194,189.941956 
	C181.559586,189.961304 185.389786,189.937927 189.218216,190.009293 
	C196.249954,190.140366 202.223129,188.044373 206.997986,182.562790 
	C211.455688,177.445328 212.384979,171.254272 209.599335,165.925613 
	C207.304596,161.535995 202.800186,156.866547 198.281784,155.416840 
	C191.799515,153.337036 184.414032,154.072357 177.056046,153.581970 
	C177.056046,166.025421 177.056046,177.638199 177.730194,189.941956 
M230.356384,162.098663 
	C226.718369,168.340454 226.327209,175.069733 229.862091,181.082108 
	C234.053864,188.211777 241.039230,191.084290 249.386398,189.983261 
	C256.219604,189.081909 262.305176,183.483978 263.817780,176.330429 
	C265.017853,170.654984 262.751648,160.615112 257.050629,157.270676 
	C247.604935,151.729446 238.352631,152.804916 230.356384,162.098663 
M290.500000,186.997025 
	C295.141418,180.934250 294.581635,171.803284 285.586121,169.954880 
	C282.476135,169.315842 279.392731,168.274155 276.506073,166.958145 
	C275.376892,166.443344 274.279694,164.701538 274.206787,163.457657 
	C274.162598,162.704041 276.106079,161.146927 277.161591,161.142502 
	C280.553009,161.128220 283.946411,161.888962 287.339722,161.894226 
	C288.869019,161.896591 290.399994,160.818787 291.930206,160.231079 
	C291.199310,158.809418 290.827972,156.655624 289.676575,156.090179 
	C284.074280,153.338928 278.344940,152.716919 272.475372,155.861740 
	C268.496490,157.993530 267.144470,161.428345 267.078949,165.430588 
	C267.020752,168.984497 268.790070,171.304398 272.602631,172.346207 
	C276.705170,173.467270 280.573334,175.429779 284.573364,176.947052 
	C288.438599,178.413177 287.617615,181.503311 285.061401,182.054367 
	C281.016235,182.926407 276.544800,182.255402 272.330933,181.676010 
	C270.847168,181.472000 269.793030,178.083145 267.942780,181.406464 
	C266.531738,183.940811 266.382324,185.601669 269.507416,187.258881 
	C276.377899,190.902252 283.066772,191.010208 290.500000,186.997025 
M142.914536,185.369614 
	C147.625916,190.130905 153.131454,190.998657 159.451416,189.163055 
	C165.504242,187.405045 168.676514,183.622162 169.012909,177.365067 
	C169.321213,171.630249 169.817566,165.901306 169.960892,160.163010 
	C170.124557,153.611176 169.994781,153.607941 163.314896,154.434448 
	C163.224960,154.573837 163.056931,154.712860 163.056305,154.852631 
	C163.028320,161.181442 163.009949,167.510330 163.001297,173.839203 
	C162.991318,181.152634 161.050018,183.085617 153.778961,183.000000 
	C148.768723,182.941010 146.120621,179.958481 146.024094,173.927719 
	C145.918381,167.323776 146.000046,160.716827 146.000046,153.929977 
	C143.663589,154.045746 141.922134,154.132034 139.825363,154.235916 
	C140.925735,164.683334 137.984100,175.017990 142.914536,185.369614 
M138.998459,50.238461 
	C138.813843,48.798496 138.821945,47.300747 138.410538,45.928795 
	C136.817993,40.617893 134.144882,39.165306 127.805298,38.925774 
	C122.824821,38.737602 120.785828,42.127136 119.256279,45.611889 
	C117.465172,49.692558 119.773338,55.439255 123.358421,57.770733 
	C129.192169,61.564579 135.846146,58.710861 138.998459,50.238461 
M231.601700,40.934887 
	C230.727341,42.619839 229.638153,44.229862 229.019363,46.003956 
	C227.248108,51.082172 229.249603,55.918102 233.967804,58.446224 
	C237.498581,60.338108 243.584030,58.723698 246.313034,55.171196 
	C248.710968,52.049648 248.699692,45.925961 246.290268,42.808628 
	C243.097061,38.677223 238.111465,37.802956 231.601700,40.934887 
M222.000000,176.491547 
	C222.000000,169.038879 222.000000,161.586212 222.000000,154.165848 
	C215.006653,153.874222 215.003387,153.874222 215.000824,160.013931 
	C214.997482,168.009628 214.997253,176.005325 215.000870,184.001022 
	C215.003784,190.473526 215.155853,190.592545 222.000000,189.387970 
	C222.000000,185.448776 222.000000,181.468445 222.000000,176.491547 
z"/>
<path fill="#FFFFFF" opacity="1.000000" stroke="none" 
	d="
M40.004211,33.000000 
	C49.281013,33.000000 58.058941,33.000000 66.836868,33.000000 
	C66.868103,33.814468 66.899338,34.628933 66.930573,35.443401 
	C62.211994,36.126438 57.493416,36.809479 52.658466,37.509365 
	C62.272839,63.935116 72.017349,90.718544 81.999252,118.154480 
	C82.572876,117.644745 83.647926,117.145325 83.954147,116.349922 
	C89.932625,100.821098 95.955467,85.306839 101.678299,69.683044 
	C105.089188,60.371056 108.013847,50.880482 111.130135,41.461269 
	C112.729721,36.626369 112.309044,36.059059 107.209930,36.004322 
	C104.710602,35.977489 102.206573,36.073357 99.714325,35.937035 
	C99.131142,35.905140 98.587166,35.156387 98.025154,34.737446 
	C98.594269,34.160168 99.076454,33.415951 99.760651,33.059681 
	C100.285782,32.786240 101.065582,33.000240 101.732124,33.000240 
	C125.728416,33.000355 149.724701,32.999519 173.720993,33.008034 
	C174.367310,33.008263 175.013611,33.110138 175.842346,33.877758 
	C172.109970,37.858604 166.836426,36.570930 161.853104,37.248814 
	C171.733414,64.302139 181.543167,91.162292 191.352936,118.022446 
	C191.846069,118.141678 192.339203,118.260918 192.832336,118.380157 
	C202.690506,91.112885 212.548691,63.845612 222.616531,35.998394 
	C217.851395,35.998394 214.033081,36.091698 210.226822,35.919315 
	C209.469604,35.885021 208.758453,34.833626 208.026062,34.251244 
	C208.757553,33.834698 209.446335,33.224178 210.231476,33.051334 
	C211.185211,32.841377 212.220200,33.000065 213.220047,33.000065 
	C238.882736,32.999981 264.545868,32.913155 290.207977,33.035244 
	C303.814606,33.099979 315.694672,37.324707 325.789276,47.057625 
	C334.258179,55.223072 337.925964,65.224297 340.009338,76.254555 
	C343.220245,93.254555 339.816467,109.075508 329.839172,122.911537 
	C321.942657,133.862045 310.558289,140.578323 296.807129,140.860275 
	C272.487793,141.358917 248.150848,141.012848 223.821335,140.974533 
	C221.962570,140.971619 220.104385,140.606827 218.245926,140.410233 
	C218.223083,139.822342 218.200241,139.234467 218.177414,138.646576 
	C221.974091,138.319550 225.770752,137.992538 229.783325,137.646927 
	C229.783325,114.575531 229.783325,91.494057 229.783325,68.503967 
	C226.429138,67.910088 223.196716,67.337776 219.964294,66.765457 
	C219.971176,66.204948 219.978058,65.644440 219.984940,65.083931 
	C228.925934,62.616856 238.226135,64.831039 247.867889,63.765888 
	C247.867889,88.615875 247.867889,113.149178 247.867889,137.837860 
	C250.387466,137.837860 252.342545,137.837860 255.000000,137.837860 
	C255.000000,121.344795 255.000000,104.770531 255.000000,88.196266 
	C255.000000,71.368622 255.000000,54.540970 255.000000,37.356712 
	C245.194046,37.356712 235.453827,37.356712 225.026077,37.356712 
	C212.890518,71.507385 200.604675,106.080910 188.241531,140.871994 
	C186.262589,140.871994 183.953384,140.871994 180.998840,140.871994 
	C168.094559,106.359337 155.115402,71.646461 142.161087,37.000031 
	C134.169052,37.000031 126.833176,37.232021 119.523048,36.898869 
	C116.043625,36.740295 114.844734,38.477608 114.020706,41.169945 
	C112.806503,45.137062 111.742004,49.153538 110.413498,53.081257 
	C108.673134,58.226654 106.745552,63.308933 104.884499,68.413261 
	C101.595261,77.434639 98.308250,86.456863 94.996925,95.470139 
	C90.534851,107.615700 86.023598,119.743317 81.614128,131.907883 
	C81.127014,133.251694 81.576668,135.042130 80.869759,136.174713 
	C79.741753,137.981979 78.280800,140.170059 76.466019,140.823593 
	C73.665672,141.832031 71.753426,140.734924 70.465858,137.178162 
	C62.899345,116.276474 54.841759,95.553055 47.025517,74.741066 
	C42.862965,63.657600 38.884548,52.505093 34.755711,41.408791 
	C33.442650,37.879932 31.647020,34.913963 26.968340,35.948746 
	C25.755604,36.216965 24.403513,35.855110 23.038052,35.106117 
	C28.085182,31.411068 34.032135,33.742657 40.004211,33.000000 
M318.596710,114.922905 
	C319.743835,109.239494 321.010040,103.577065 322.015808,97.868744 
	C325.061340,80.583504 322.611420,64.068039 313.321381,49.155842 
	C310.695221,44.940388 305.962372,41.063549 301.330200,39.282555 
	C292.752472,35.984543 283.500275,34.995384 274.227783,37.436882 
	C274.227783,70.885368 274.227783,104.274208 274.227783,137.641266 
	C298.354462,139.865082 311.345520,135.012268 318.596710,114.922905 
z"/>
<path fill="#FFFFFF" opacity="1.000000" stroke="none" 
	d="
M120.000000,126.980576 
	C120.000000,107.170952 120.000000,87.859055 120.000000,68.489449 
	C117.009125,66.929893 112.005142,69.955292 110.746986,64.190186 
	C119.954933,64.190186 128.729630,64.190186 137.906921,64.190186 
	C137.906921,88.702141 137.906921,113.110748 137.906921,138.000168 
	C140.897568,138.000168 143.523529,137.856277 146.119263,138.073410 
	C147.109833,138.156281 148.031174,139.066467 148.984070,139.599609 
	C148.132843,140.066177 147.284454,140.933029 146.429947,140.939148 
	C134.119858,141.027130 121.808945,140.999344 109.488327,140.999344 
	C109.601547,138.397644 109.601547,138.397644 120.000000,137.744202 
	C120.000000,134.362534 120.000000,130.920425 120.000000,126.980576 
z"/>
<path fill="#FFFFFF" opacity="1.000000" stroke="none" 
	d="
M120.000000,166.115189 
	C120.000000,164.180862 120.000000,162.734085 120.000000,160.732422 
	C114.570320,162.033646 109.694832,159.774689 104.506432,161.734940 
	C101.635551,162.819595 97.760117,160.910538 94.399254,161.165405 
	C92.539619,161.306412 90.807358,163.127182 89.017685,164.190750 
	C90.473198,165.458252 91.753838,167.082382 93.428261,167.903442 
	C95.546547,168.942154 98.004433,169.268280 100.282181,170.005722 
	C106.302299,171.954758 109.598976,175.937317 108.994423,180.432816 
	C108.350876,185.218292 102.821426,189.897171 97.235596,189.933319 
	C93.839561,189.955322 90.374336,189.624527 87.056137,188.912155 
	C82.076675,187.843109 81.060524,184.674759 83.145622,181.223068 
	C88.636108,181.861282 93.523094,182.603271 98.435913,182.870651 
	C99.577034,182.932739 101.620743,181.505829 101.774162,180.531754 
	C101.939842,179.479828 100.640717,177.578888 99.515320,177.062805 
	C96.628754,175.739105 93.521805,174.835419 90.434952,174.021896 
	C84.388741,172.428467 81.559464,168.944229 82.000557,163.305588 
	C82.340775,158.956451 87.015884,154.150055 91.915527,154.119019 
	C96.816978,154.087967 101.724457,155.007187 107.346092,155.583328 
	C108.818382,155.227509 111.343773,154.165771 113.900314,154.084518 
	C121.378288,153.846832 128.868683,154.000000 136.676483,154.000000 
	C136.676483,156.226181 136.676483,158.295593 136.676483,160.754074 
	C133.484146,160.754074 130.061783,160.754074 126.231857,160.754074 
	C126.231857,170.534134 126.231857,179.948868 126.231857,189.749969 
	C124.109131,189.865707 122.365608,189.960770 120.000000,190.089752 
	C120.000000,182.148529 120.000000,174.375626 120.000000,166.115189 
z"/>
<path fill="#FFFFFF" opacity="1.000000" stroke="none" 
	d="
M177.393127,189.596466 
	C177.056046,177.638199 177.056046,166.025421 177.056046,153.581970 
	C184.414032,154.072357 191.799515,153.337036 198.281784,155.416840 
	C202.800186,156.866547 207.304596,161.535995 209.599335,165.925613 
	C212.384979,171.254272 211.455688,177.445328 206.997986,182.562790 
	C202.223129,188.044373 196.249954,190.140366 189.218216,190.009293 
	C185.389786,189.937927 181.559586,189.961304 177.393127,189.596466 
M191.322922,183.000000 
	C196.535004,183.851013 200.492661,181.511414 202.791931,177.245300 
	C204.971939,173.200424 202.914230,164.358307 199.249557,163.098907 
	C194.241959,161.378006 188.710648,161.181061 183.254395,160.306900 
	C183.254395,168.617905 183.254395,175.671875 183.254395,183.000000 
	C185.799927,183.000000 188.094360,183.000000 191.322922,183.000000 
z"/>
<path fill="#FFFFFF" opacity="1.000000" stroke="none" 
	d="
M230.648087,161.844635 
	C238.352631,152.804916 247.604935,151.729446 257.050629,157.270676 
	C262.751648,160.615112 265.017853,170.654984 263.817780,176.330429 
	C262.305176,183.483978 256.219604,189.081909 249.386398,189.983261 
	C241.039230,191.084290 234.053864,188.211777 229.862091,181.082108 
	C226.327209,175.069733 226.718369,168.340454 230.648087,161.844635 
M234.870544,175.360504 
	C237.901138,182.149277 240.165131,183.247452 248.325104,183.076706 
	C252.657135,182.986053 256.174774,178.991684 257.919495,172.975159 
	C258.767029,170.052490 254.845627,163.112946 251.974182,162.038376 
	C241.573303,158.145966 232.551208,164.437363 234.870544,175.360504 
z"/>
<path fill="#FFFFFF" opacity="1.000000" stroke="none" 
	d="
M290.215881,187.290985 
	C283.066772,191.010208 276.377899,190.902252 269.507416,187.258881 
	C266.382324,185.601669 266.531738,183.940811 267.942780,181.406464 
	C269.793030,178.083145 270.847168,181.472000 272.330933,181.676010 
	C276.544800,182.255402 281.016235,182.926407 285.061401,182.054367 
	C287.617615,181.503311 288.438599,178.413177 284.573364,176.947052 
	C280.573334,175.429779 276.705170,173.467270 272.602631,172.346207 
	C268.790070,171.304398 267.020752,168.984497 267.078949,165.430588 
	C267.144470,161.428345 268.496490,157.993530 272.475372,155.861740 
	C278.344940,152.716919 284.074280,153.338928 289.676575,156.090179 
	C290.827972,156.655624 291.199310,158.809418 291.930206,160.231079 
	C290.399994,160.818787 288.869019,161.896591 287.339722,161.894226 
	C283.946411,161.888962 280.553009,161.128220 277.161591,161.142502 
	C276.106079,161.146927 274.162598,162.704041 274.206787,163.457657 
	C274.279694,164.701538 275.376892,166.443344 276.506073,166.958145 
	C279.392731,168.274155 282.476135,169.315842 285.586121,169.954880 
	C294.581635,171.803284 295.141418,180.934250 290.215881,187.290985 
z"/>
<path fill="#FFFFFF" opacity="1.000000" stroke="none" 
	d="
M142.614746,185.107376 
	C137.984100,175.017990 140.925735,164.683334 139.825363,154.235916 
	C141.922134,154.132034 143.663589,154.045746 146.000046,153.929977 
	C146.000046,160.716827 145.918381,167.323776 146.024094,173.927719 
	C146.120621,179.958481 148.768723,182.941010 153.778961,183.000000 
	C161.050018,183.085617 162.991318,181.152634 163.001297,173.839203 
	C163.009949,167.510330 163.028320,161.181442 163.056305,154.852631 
	C163.056931,154.712860 163.224960,154.573837 163.314896,154.434448 
	C169.994781,153.607941 170.124557,153.611176 169.960892,160.163010 
	C169.817566,165.901306 169.321213,171.630249 169.012909,177.365067 
	C168.676514,183.622162 165.504242,187.405045 159.451416,189.163055 
	C153.131454,190.998657 147.625916,190.130905 142.614746,185.107376 
z"/>
<path fill="#FFFFFF" opacity="1.000000" stroke="none" 
	d="
M138.987991,50.655281 
	C135.846146,58.710861 129.192169,61.564579 123.358421,57.770733 
	C119.773338,55.439255 117.465172,49.692558 119.256279,45.611889 
	C120.785828,42.127136 122.824821,38.737602 127.805298,38.925774 
	C134.144882,39.165306 136.817993,40.617893 138.410538,45.928795 
	C138.821945,47.300747 138.813843,48.798496 138.987991,50.655281 
z"/>
<path fill="#FFFFFF" opacity="1.000000" stroke="none" 
	d="
M231.872375,40.631344 
	C238.111465,37.802956 243.097061,38.677223 246.290268,42.808628 
	C248.699692,45.925961 248.710968,52.049648 246.313034,55.171196 
	C243.584030,58.723698 237.498581,60.338108 233.967804,58.446224 
	C229.249603,55.918102 227.248108,51.082172 229.019363,46.003956 
	C229.638153,44.229862 230.727341,42.619839 231.872375,40.631344 
z"/>
<path fill="#FFFFFF" opacity="1.000000" stroke="none" 
	d="
M222.000000,176.989838 
	C222.000000,181.468445 222.000000,185.448776 222.000000,189.387970 
	C215.155853,190.592545 215.003784,190.473526 215.000870,184.001022 
	C214.997253,176.005325 214.997482,168.009628 215.000824,160.013931 
	C215.003387,153.874222 215.006653,153.874222 222.000000,154.165848 
	C222.000000,161.586212 222.000000,169.038879 222.000000,176.989838 
z"/>
<path fill="#000000" opacity="1.000000" stroke="none" 
	d="
M318.321655,115.223648 
	C311.345520,135.012268 298.354462,139.865082 274.227783,137.641266 
	C274.227783,104.274208 274.227783,70.885368 274.227783,37.436882 
	C283.500275,34.995384 292.752472,35.984543 301.330200,39.282555 
	C305.962372,41.063549 310.695221,44.940388 313.321381,49.155842 
	C322.611420,64.068039 325.061340,80.583504 322.015808,97.868744 
	C321.010040,103.577065 319.743835,109.239494 318.321655,115.223648 
z"/>
<path fill="#000000" opacity="1.000000" stroke="none" 
	d="
M190.855865,183.000000 
	C188.094360,183.000000 185.799927,183.000000 183.254395,183.000000 
	C183.254395,175.671875 183.254395,168.617905 183.254395,160.306900 
	C188.710648,161.181061 194.241959,161.378006 199.249557,163.098907 
	C202.914230,164.358307 204.971939,173.200424 202.791931,177.245300 
	C200.492661,181.511414 196.535004,183.851013 190.855865,183.000000 
z"/>
<path fill="#000000" opacity="1.000000" stroke="none" 
	d="
M234.572311,175.083588 
	C232.551208,164.437363 241.573303,158.145966 251.974182,162.038376 
	C254.845627,163.112946 258.767029,170.052490 257.919495,172.975159 
	C256.174774,178.991684 252.657135,182.986053 248.325104,183.076706 
	C240.165131,183.247452 237.901138,182.149277 234.572311,175.083588 
z"/>
</svg>